# xmcd
#
# Track frame offsets:
#	150
#	9633
#	21988
#	35995
#	49526
#	64949
#	78623
#	89158
#	103290
#	116746
#	134397
#	146149
#	162967
#	179401
#	192324
#	205955
#	218694
#	230418
#	247618
#	263314
#	276486
#	293059
#	307677
#
# Disc length: 4274 seconds
#
# Revision: 1
# Processed by: cddbd v1.4PL0 Copyright (c) Steve Scherf et al.
# Submitted via: EasyCDDAExtractor 5.1.0
#
DISCID=5710b017
DTITLE=Barbara Mandrell - Ultimate Collection
DYEAR=2001
DGENRE=Country
TTITLE0=Tonight My Baby's Coming Home
TTITLE1=The Midnight Oil
TTITLE2=Standing Room Only
TTITLE3=Married But Not to Each Other
TTITLE4=Woman to Woman
TTITLE5=Tonight
TTITLE6=Sleeping Single In A Double Bed
TTITLE7=I Don't Wanna Be Right, (If Loving You Is Wrong)
TTITLE8=Fooled By A Feeling
TTITLE9=Years
TTITLE10=Crackers
TTITLE11=The Best of Strangers
TTITLE12=I Was Country When Country Wasn't Cool
TTITLE13=Till You're Gone
TTITLE14=In Times Like These
TTITLE15=One of a Kind Pair of Fools
TTITLE16=Happy Birthday Dear Heartache
TTITLE17=Only A Lonely Heart Knows
TTITLE18=There's No Love In Tennessee
TTITLE19=Angel In Your Arms
TTITLE20=Fast Lanes and Country Roads
TTITLE21=No One Mends a Broken Heart Like You
TTITLE22=I Wish That I Could Fall In Love Today
EXTD=
EXTT0=
EXTT1=
EXTT2=
EXTT3=
EXTT4=
EXTT5=
EXTT6=
EXTT7=
EXTT8=
EXTT9=
EXTT10=
EXTT11=
EXTT12=
EXTT13=
EXTT14=
EXTT15=
EXTT16=
EXTT17=
EXTT18=
EXTT19=
EXTT20=
EXTT21=
EXTT22=
PLAYORDER=
